<svg id="Capa_1" enable-background="new 0 0 510 510" height="512" viewBox="0 0 510 510" width="512" xmlns="http://www.w3.org/2000/svg"><g><circle cx="255" cy="255" fill="#5a69e5" r="255"/><path d="m510 255c0 140.938-114.057 255-255 255v-510c140.938 0 255 114.057 255 255z" fill="#0051be"/><path d="m319 166h-17v265c0 8.28-6.72 15-15 15h-64c-8.28 0-15-6.72-15-15v-265h-17c-12.921 0-19.79-15.32-11.21-24.97l64-72c5.967-6.7 16.447-6.707 22.42 0l64 72c8.585 9.655 1.703 24.97-11.21 24.97z" fill="#ecf7fe"/><path d="m319 166h-17v265c0 8.28-6.72 15-15 15h-32v-382c4.28 0 8.36 1.83 11.21 5.03l64 72c8.585 9.655 1.703 24.97-11.21 24.97z" fill="#dce7f5"/></g></svg>